<?xml version="1.0" encoding="UTF-8"?>
<svg version="1.1" xmlns="http://www.w3.org/2000/svg" width="469" height="94">
<path d="M0 0 C31.35 0 62.7 0 95 0 C95 31.02 95 62.04 95 94 C83.78 94 72.56 94 61 94 C59.75230842 89.63307947 58.62686569 85.51123936 57.74609375 81.09375 C57.53146484 80.01996094 57.31683594 78.94617188 57.09570312 77.83984375 C56.87849609 76.73769531 56.66128906 75.63554688 56.4375 74.5 C56.21642578 73.39785156 55.99535156 72.29570313 55.76757812 71.16015625 C54.14606638 62.99871043 52.85378016 55.33453079 53 47 C54.093125 46.773125 55.18625 46.54625 56.3125 46.3125 C60.6049782 44.78466877 60.82891995 43.75004736 63 40 C65.6875 39.6875 65.6875 39.6875 68 40 C68.33 39.01 68.66 38.02 69 37 C70.98 37 72.96 37 75 37 C75.66 35.68 76.32 34.36 77 33 C77.66 33.33 78.32 33.66 79 34 C79 34.66 79 35.32 79 36 C82.3 36 85.6 36 89 36 C89 35.01 89 34.02 89 33 C86.69 32.34 84.38 31.68 82 31 C83 29 83 29 86 28 C85.67 27.67 85.34 27.34 85 27 C81.76120845 27.00914913 78.53316614 27.13333976 75.296875 27.2578125 C71.69731893 26.97633063 69.90039504 26.08261448 67 24 C67.33 22.68 67.66 21.36 68 20 C67.30132812 19.93941406 66.60265625 19.87882812 65.8828125 19.81640625 C64.97273438 19.73261719 64.06265625 19.64882813 63.125 19.5625 C62.22007813 19.48128906 61.31515625 19.40007813 60.3828125 19.31640625 C58 19 58 19 56 18 C55.505 19.485 55.505 19.485 55 21 C53.948125 20.773125 52.89625 20.54625 51.8125 20.3125 C46.63413697 19.64106039 42.10880286 20.96167853 37.109375 22.24609375 C34.59702985 22.85524276 32.31369234 23.237532 29.75 23.4375 C25.04383456 24.14342482 21.23332691 25.89313591 17 28 C17 29.32 17 30.64 17 32 C14.35541621 33.32229189 12.32238699 33.09677194 9.375 33.0625 C8.37210938 33.05347656 7.36921875 33.04445312 6.3359375 33.03515625 C5.56507813 33.02355469 4.79421875 33.01195312 4 33 C4 33.66 4 34.32 4 35 C4.928125 35.309375 5.85625 35.61875 6.8125 35.9375 C8.875 36.625 10.9375 37.3125 13 38 C15.11876723 38.5650046 17.21771538 39.04010546 19.375 39.4375 C22 40 22 40 24.9375 41.0625 C27.95511386 42.17130015 27.95511386 42.17130015 31.0625 41.875 C34 42 34 42 36.9375 43.25 C39.83324345 47.11099126 39.24805336 49.59591479 38.65625 54.2734375 C37.75019629 59.41852821 36.65671817 64.5155339 35.52270508 69.61474609 C33.75574142 77.70774638 32.84506595 85.76060698 32 94 C21.44 94 10.88 94 0 94 C0 62.98 0 31.96 0 0 Z M69 41 C69.33 41.99 69.66 42.98 70 44 C70.99 44 71.98 44 73 44 C73 43.34 73 42.68 73 42 C71.68 41.67 70.36 41.34 69 41 Z " fill="#073376" transform="translate(0,0)"/>
<path d="M0 0 C112.53 0 225.06 0 341 0 C341 1.32 341 2.64 341 4 C228.47 4 115.94 4 0 4 C0 2.68 0 1.36 0 0 Z " fill="#04347A" transform="translate(110,49)"/>
<path d="M0 0 C2.5 1 2.5 1 4 2 C4.33 1.34 4.66 0.68 5 0 C11.6 0 18.2 0 25 0 C25.495 2.475 25.495 2.475 26 5 C26.61875 4.360625 27.2375 3.72125 27.875 3.0625 C31.08618512 -0.05423849 33.40788102 -0.39206462 37.89453125 -0.359375 C41.61593453 0.27581814 43.40312849 2.33979016 46 5 C47.36538938 7.73077876 47.13231826 9.95560367 47.125 13 C47.12886719 14.60875 47.12886719 14.60875 47.1328125 16.25 C47 19 47 19 46 21 C45.34 21 44.68 21 44 21 C43.505 22.485 43.505 22.485 43 24 C39.52144662 26.54201978 36.1728655 26.56581227 32 26 C28.4364095 24.04577295 25.7660435 21.70159449 24.08203125 17.9609375 C23.0653784 14.31736287 22.9188912 11.57719825 24 8 C22.35 8 20.7 8 19 8 C18.67 13.94 18.34 19.88 18 26 C15.69 26 13.38 26 11 26 C10.67 20.06 10.34 14.12 10 8 C8.35 8 6.7 8 5 8 C4.67 7.34 4.34 6.68 4 6 C3.01 7.485 3.01 7.485 2 9 C-0.31 8.67 -2.62 8.34 -5 8 C-4.37351562 8.26554687 -3.74703125 8.53109375 -3.1015625 8.8046875 C-1.87566406 9.33449219 -1.87566406 9.33449219 -0.625 9.875 C0.18710937 10.22304688 0.99921875 10.57109375 1.8359375 10.9296875 C4 12 4 12 6 14 C6.5 17.3125 6.5 17.3125 6 21 C2.82524913 24.63934856 1.3142039 25.78494845 -3.4375 26.5625 C-7.82677768 25.86945616 -10.29926914 24.41680383 -14 22 C-12.68 20.02 -11.36 18.04 -10 16 C-9.4225 16.33 -8.845 16.66 -8.25 17 C-5.80116138 18.27075898 -5.80116138 18.27075898 -2 18 C-5.3 16.35 -8.6 14.7 -12 13 C-12.48106904 4.82182628 -12.48106904 4.82182628 -10.5 1.4375 C-6.96972264 -0.59240948 -3.98204178 -0.57119452 0 0 Z M34 7 C31.59486045 9.50134513 31 10.5893459 31 14.125 C31.71219386 17.21790931 31.71219386 17.21790931 34.5625 18.375 C35.366875 18.58125 36.17125 18.7875 37 19 C39.26881841 15.91440696 40.05451946 14.57790624 39.6875 10.6875 C39.460625 9.800625 39.23375 8.91375 39 8 C37.35 7.67 35.7 7.34 34 7 Z " fill="#6BAF13" transform="translate(364,18)"/>
<path d="M0 0 C3.28515625 -0.25 3.28515625 -0.25 7 0 C8.99609375 1.75 8.99609375 1.75 10.4375 4 C11.17806641 5.11375 11.17806641 5.11375 11.93359375 6.25 C12.28550781 6.8275 12.63742187 7.405 13 8 C13.33 5.36 13.66 2.72 14 0 C16.64 0 19.28 0 22 0 C22.02886751 4.14581887 22.04675327 8.29161216 22.0625 12.4375 C22.07087891 13.62150391 22.07925781 14.80550781 22.08789062 16.02539062 C22.09272461 17.71245117 22.09272461 17.71245117 22.09765625 19.43359375 C22.10551147 20.99678345 22.10551147 20.99678345 22.11352539 22.59155273 C22 25 22 25 21 26 C18.67578125 26.34375 18.67578125 26.34375 16 26 C13.98046875 24.03125 13.98046875 24.03125 12.1875 21.5 C11.58292969 20.6646875 10.97835938 19.829375 10.35546875 18.96875 C9.90816406 18.3190625 9.46085937 17.669375 9 17 C8.67 19.97 8.34 22.94 8 26 C5.66705225 26.04241723 3.33297433 26.04092937 1 26 C0 25 0 25 -0.11352539 22.59155273 C-0.10828857 21.54942627 -0.10305176 20.5072998 -0.09765625 19.43359375 C-0.09443359 18.30888672 -0.09121094 17.18417969 -0.08789062 16.02539062 C-0.07951172 14.84138672 -0.07113281 13.65738281 -0.0625 12.4375 C-0.05798828 11.24962891 -0.05347656 10.06175781 -0.04882812 8.83789062 C-0.03699675 5.89187774 -0.02051287 2.94596319 0 0 Z " fill="#6CAD11" transform="translate(412,18)"/>
<path d="M0 0 C2.31 0 4.62 0 7 0 C8.65 2.97 10.3 5.94 12 9 C12.33 6.03 12.66 3.06 13 0 C15.31 0 17.62 0 20 0 C20 8.58 20 17.16 20 26 C18.02 26 16.04 26 14 26 C12.1015625 24.03125 12.1015625 24.03125 10.625 21.5 C10.12226563 20.6646875 9.61953125 19.829375 9.1015625 18.96875 C8.73804688 18.3190625 8.37453125 17.669375 8 17 C7.67 19.97 7.34 22.94 7 26 C4.69 26 2.38 26 0 26 C0 17.42 0 8.84 0 0 Z " fill="#6BAF13" transform="translate(175,18)"/>
<path d="M0 0 C13 0 13 0 18 3 C20.13101351 5.71219902 20.00025633 6.99641144 19.75 10.5 C19 14 19 14 17.75 16.125 C17.5025 16.74375 17.255 17.3625 17 18 C18.33700035 20.58944746 18.33700035 20.58944746 20 23 C20 23.99 20 24.98 20 26 C16.75 26.375 16.75 26.375 13 26 C10.6875 23.0625 10.6875 23.0625 9 20 C8.34 19.67 7.68 19.34 7 19 C7 21.31 7 23.62 7 26 C4.69 26 2.38 26 0 26 C0 17.42 0 8.84 0 0 Z M7 7 C7 8.65 7 10.3 7 12 C8.65 11.67 10.3 11.34 12 11 C11.67 9.68 11.34 8.36 11 7 C9.68 7 8.36 7 7 7 Z " fill="#6CAE13" transform="translate(154,18)"/>
<path d="M0 0 C5.94 0 11.88 0 18 0 C18 2.31 18 4.62 18 7 C14.7 7.33 11.4 7.66 8 8 C8 8.66 8 9.32 8 10 C11.3 10 14.6 10 18 10 C18 11.98 18 13.96 18 16 C13.05 16.495 13.05 16.495 8 17 C11.3 17.33 14.6 17.66 18 18 C18 20.64 18 23.28 18 26 C12.06 26 6.12 26 0 26 C0 17.42 0 8.84 0 0 Z " fill="#69B012" transform="translate(435,18)"/>
<path d="M0 0 C3.01784991 1.75607646 5.41468217 3.82936435 7 7 C7.09649939 8.9981051 7.12980872 10.9995718 7.125 13 C7.12886719 14.60875 7.12886719 14.60875 7.1328125 16.25 C7 19 7 19 6 21 C5.34 21 4.68 21 4 21 C3.67 21.99 3.34 22.98 3 24 C-0.46544093 26.5324376 -3.84045178 26.50201444 -8 26 C-11.63466656 23.92186491 -14.83102246 21.09142137 -16 17 C-16.45066982 11.41169427 -16.22940481 7.78842782 -13 3 C-9.16226391 -0.28948808 -4.9095972 -1.05479627 0 0 Z M-6 7 C-8.04331967 9.07097697 -8.04331967 9.07097697 -9 12 C-8.6039603 15.27242264 -8.6039603 15.27242264 -7 18 C-5.12042756 19.1576585 -5.12042756 19.1576585 -3 19 C-2.01 18.34 -1.02 17.68 0 17 C0.43827201 15.09542071 0.43827201 15.09542071 0.3125 13 C0.30863281 12.29875 0.30476563 11.5975 0.30078125 10.875 C0.14912946 8.7583423 0.14912946 8.7583423 -2 7 C-3.32 7 -4.64 7 -6 7 Z " fill="#6BAF13" transform="translate(145,18)"/>
<path d="M0 0 C5.94 0 11.88 0 18 0 C18 2.31 18 4.62 18 7 C14.37 7 10.74 7 7 7 C7 7.99 7 8.98 7 10 C9.97 10 12.94 10 16 10 C16 11.98 16 13.96 16 16 C13.03 16 10.06 16 7 16 C7.33 16.66 7.66 17.32 8 18 C8.63808594 17.98839844 9.27617187 17.97679688 9.93359375 17.96484375 C10.75988281 17.95582031 11.58617187 17.94679688 12.4375 17.9375 C13.26121094 17.92589844 14.08492187 17.91429688 14.93359375 17.90234375 C17 18 17 18 18 19 C18 21.31 18 23.62 18 26 C12.06 26 6.12 26 0 26 C0 17.42 0 8.84 0 0 Z " fill="#69B013" transform="translate(198,18)"/>
<path d="M0 0 C3 0.5625 3 0.5625 5.375 2.6875 C7.221621 5.95459869 7.3434538 7.87037163 7 11.5625 C7.99 11.8925 8.98 12.2225 10 12.5625 C10.08114106 14.33257714 10.13925505 16.10372098 10.1875 17.875 C10.23970703 19.35419922 10.23970703 19.35419922 10.29296875 20.86328125 C10 23.5625 10 23.5625 8.61328125 25.41796875 C7 26.5625 7 26.5625 5 26.5625 C5 25.9025 5 25.2425 5 24.5625 C4.46375 24.8925 3.9275 25.2225 3.375 25.5625 C0.27953927 26.86585189 -1.66574641 27.03882194 -5 26.5625 C-7.875 24.4375 -7.875 24.4375 -10 21.5625 C-10.57991403 17.42025694 -10.34549674 16.08074511 -8 12.5625 C-7.34 12.5625 -6.68 12.5625 -6 12.5625 C-6.33 11.9025 -6.66 11.2425 -7 10.5625 C-7.38932198 6.9807378 -7.43596718 5.19968279 -5.375 2.1875 C-3 0.5625 -3 0.5625 0 0 Z M-1 6.5625 C-0.67 7.5525 -0.34 8.5425 0 9.5625 C0 8.5725 0 7.5825 0 6.5625 C-0.33 6.5625 -0.66 6.5625 -1 6.5625 Z M-3 17.5625 C-2.67 18.5525 -2.34 19.5425 -2 20.5625 C-1.34 20.5625 -0.68 20.5625 0 20.5625 C-0.33 19.5725 -0.66 18.5825 -1 17.5625 C-1.66 17.5625 -2.32 17.5625 -3 17.5625 Z " fill="#6AAF13" transform="translate(269,17.4375)"/>
<path d="M0 0 C1.134375 0.020625 2.26875 0.04125 3.4375 0.0625 C3.92669922 1.5475 3.92669922 1.5475 4.42578125 3.0625 C4.86683274 4.39595073 5.30826349 5.72927605 5.75 7.0625 C5.9771167 7.74860352 6.2042334 8.43470703 6.43823242 9.14160156 C7.63408063 12.73127176 8.87187137 16.287671 10.25 19.8125 C11.4375 23.0625 11.4375 23.0625 11.4375 26.0625 C9.1275 26.0625 6.8175 26.0625 4.4375 26.0625 C3.7775 24.7425 3.1175 23.4225 2.4375 22.0625 C0.4575 22.0625 -1.5225 22.0625 -3.5625 22.0625 C-4.2225 23.3825 -4.8825 24.7025 -5.5625 26.0625 C-7.8725 26.0625 -10.1825 26.0625 -12.5625 26.0625 C-11.58934187 18.93159992 -8.50033989 0.14912877 0 0 Z M-1.5625 11.0625 C-1.5625 12.3825 -1.5625 13.7025 -1.5625 15.0625 C-0.9025 15.0625 -0.2425 15.0625 0.4375 15.0625 C-0.2225 13.7425 -0.8825 12.4225 -1.5625 11.0625 Z " fill="#6BAE13" transform="translate(320.5625,17.9375)"/>
<path d="M0 0 C4.0903345 0.02431828 5.85677766 0.08119274 9.4375 2.1875 C11.79706081 4.95388164 12.21494376 5.9409039 12.5625 9.625 C12.19344069 13.9798999 11.52921697 15.45369546 8.25 18.3125 C4.5 19.125 4.5 19.125 1.25 19.3125 C1.25 21.6225 1.25 23.9325 1.25 26.3125 C-1.06 26.3125 -3.37 26.3125 -5.75 26.3125 C-6.63695424 23.26276905 -6.87861616 20.53481374 -6.8828125 17.36328125 C-6.88474609 15.96819336 -6.88474609 15.96819336 -6.88671875 14.54492188 C-6.88285156 13.58134766 -6.87898438 12.61777344 -6.875 11.625 C-6.87886719 10.64982422 -6.88273437 9.67464844 -6.88671875 8.66992188 C-6.88542969 7.74373047 -6.88414062 6.81753906 -6.8828125 5.86328125 C-6.88168457 5.01419189 -6.88055664 4.16510254 -6.87939453 3.2902832 C-6.60745452 -0.86629427 -3.51842829 0.08152456 0 0 Z M1.25 7.3125 C1.25 8.9625 1.25 10.6125 1.25 12.3125 C2.57 11.9825 3.89 11.6525 5.25 11.3125 C4.92 9.9925 4.59 8.6725 4.25 7.3125 C3.26 7.3125 2.27 7.3125 1.25 7.3125 Z " fill="#65B312" transform="translate(338.75,17.6875)"/>
<path d="M0 0 C3 2 3 2 5 4 C4.67 5.32 4.34 6.64 4 8 C3.34 8 2.68 8 2 8 C2 8.66 2 9.32 2 10 C1.4225 9.67 0.845 9.34 0.25 9 C-2.19883862 7.72924102 -2.19883862 7.72924102 -6 8 C-7.14352916 10.28705831 -7.10334439 11.59264762 -7.0625 14.125 C-7.041875 15.40375 -7.02125 16.6825 -7 18 C-5.63875 17.7525 -5.63875 17.7525 -4.25 17.5 C-1 17 -1 17 3 17 C3.66 17.66 4.32 18.32 5 19 C4.9375 20.9375 4.9375 20.9375 4 23 C1.33712754 25.13029797 -0.56188805 25.93474928 -3.9375 26.4375 C-7.92360781 25.86805603 -9.93107163 24.59153951 -13 22 C-16.09705551 17.70408429 -16.41634453 14.2693928 -15.65234375 9.1875 C-14.57124277 5.56225119 -12.69409757 3.62838787 -10 1 C-6.80261338 -0.59869331 -3.469833 -0.51085495 0 0 Z " fill="#6BAF13" transform="translate(303,18)"/>
<path d="M0 0 C3 1.8125 3 1.8125 5 4 C5 4.99 5 5.98 5 7 C4.34 7 3.68 7 3 7 C3 7.66 3 8.32 3 9 C-0.62326739 10.2077558 -1.64146369 9.54311128 -5 8 C-7.41121859 9.95633975 -7.41121859 9.95633975 -7.125 13.625 C-7.08375 14.73875 -7.0425 15.8525 -7 17 C-5.02 17.33 -3.04 17.66 -1 18 C-1 17.34 -1 16.68 -1 16 C1.86724686 16.57344937 2.8614515 16.8614515 5 19 C4.83039198 21.62892424 4.19209319 22.78485562 2.4375 24.75 C-1.05154071 26.53925165 -4.21637233 26.77127795 -8 26 C-11.62615972 23.7168624 -13.52178403 21.95643195 -15.4375 18.125 C-16.2990053 13.33885945 -15.7813754 9.63716751 -13.6875 5.25 C-9.92946032 0.23928042 -6.28381377 -1.14477399 0 0 Z " fill="#6BAF13" transform="translate(124,18)"/>
<path d="M0 0 C2.64 0 5.28 0 8 0 C8.99 1.98 9.98 3.96 11 6 C12.50559539 4.03617993 13.89131683 2.21736634 15 0 C17.64 0 20.28 0 23 0 C21.71357496 3.38658871 20.20586744 6.46833215 18.4375 9.625 C15.67854059 15.01308543 15.12532981 20.00695634 15 26 C12.69 26 10.38 26 8 26 C8.00902344 25.35675781 8.01804688 24.71351562 8.02734375 24.05078125 C7.77661432 16.40898442 5.30882654 11.10407066 1.49609375 4.65234375 C0 2 0 2 0 0 Z " fill="#6AB013" transform="translate(229,18)"/>
<path d="M0 0 C1.32 0 2.64 0 4 0 C4 0.66 4 1.32 4 2 C4.99 2 5.98 2 7 2 C7 4.31 7 6.62 7 9 C6.01 9 5.02 9 4 9 C4 13.62 4 18.24 4 23 C5.65 23.33 7.3 23.66 9 24 C10.19758211 27.99194038 10.0803403 30.56033389 8.4375 34.3125 C6.75704431 37.36416085 6.34830532 37.87205111 2.9375 39.125 C0 39 0 39 -3 37 C-3.72159424 35.35636866 -4.39351421 33.68949614 -5 32 C-5.33 31.67 -5.66 31.34 -6 31 C-6.25 28.0625 -6.25 28.0625 -6 25 C-3 23 -3 23 0 23 C0 15.41 0 7.82 0 0 Z M-2 26 C-2 27.32 -2 28.64 -2 30 C-1.34 30 -0.68 30 0 30 C-0.33 28.68 -0.66 27.36 -1 26 C-1.33 26 -1.66 26 -2 26 Z M4 26 C3.67 26.66 3.34 27.32 3 28 C3.33 28.66 3.66 29.32 4 30 C4.99 29.67 5.98 29.34 7 29 C6.67 28.01 6.34 27.02 6 26 C5.34 26 4.68 26 4 26 Z M1 33 C1 33.99 1 34.98 1 36 C1.66 36 2.32 36 3 36 C3 35.01 3 34.02 3 33 C2.34 33 1.68 33 1 33 Z " fill="#073375" transform="translate(43,53)"/>
<path d="M0 0 C2.31 0 4.62 0 7 0 C7 5.94 7 11.88 7 18 C10.3 18 13.6 18 17 18 C17 20.64 17 23.28 17 26 C11.39 26 5.78 26 0 26 C0 17.42 0 8.84 0 0 Z " fill="#6CAE13" transform="translate(217,18)"/>
<path d="M0 0 C0 0.66 0 1.32 0 2 C0.66 2 1.32 2 2 2 C2 1.34 2 0.68 2 0 C3.65 0 5.3 0 7 0 C7 0.99 7 1.98 7 3 C8.98 2.67 10.96 2.34 13 2 C12.835 2.53625 12.67 3.0725 12.5 3.625 C11.90339788 6.45886009 11.9343632 9.1119806 12 12 C10.25 12.6875 10.25 12.6875 8 13 C5.75 11.75 5.75 11.75 4 10 C4 9.01 4 8.02 4 7 C3.34 7.66 2.68 8.32 2 9 C1.01 9 0.02 9 -1 9 C-1 9.66 -1 10.32 -1 11 C-2.43655854 11.08131463 -3.8744483 11.13933559 -5.3125 11.1875 C-6.51326172 11.23970703 -6.51326172 11.23970703 -7.73828125 11.29296875 C-10.53873497 10.93021568 -11.18906704 10.09500088 -13 8 C-13.99 7.34 -14.98 6.68 -16 6 C-15.67 4.35 -15.34 2.7 -15 1 C-14.07767578 0.90912109 -14.07767578 0.90912109 -13.13671875 0.81640625 C-12.32847656 0.73261719 -11.52023438 0.64882813 -10.6875 0.5625 C-9.88699219 0.48128906 -9.08648437 0.40007813 -8.26171875 0.31640625 C-1.77372263 -0.59124088 -1.77372263 -0.59124088 0 0 Z " fill="#073373" transform="translate(35,29)"/>
<path d="M0 0 C0.144375 0.763125 0.28875 1.52625 0.4375 2.3125 C0.9632594 5.08172908 0.9632594 5.08172908 2 8 C4.01508358 8.73323796 4.01508358 8.73323796 6 9 C6 9.66 6 10.32 6 11 C5.236875 10.938125 4.47375 10.87625 3.6875 10.8125 C0.97965228 10.70142575 0.97965228 10.70142575 -0.3984375 12.4375 C-3.88794372 15.84189632 -9.72536258 15.83476922 -14.375 16.4375 C-17 16 -17 16 -19 13.8125 C-20 11 -20 11 -19.1875 8.1875 C-18.795625 7.465625 -18.40375 6.74375 -18 6 C-15.69 6 -13.38 6 -11 6 C-10.71125 5.030625 -10.4225 4.06125 -10.125 3.0625 C-8.0976779 -2.45632128 -5.15074775 -0.85845796 0 0 Z " fill="#073375" transform="translate(68,25)"/>
<path d="M0 0 C1.859375 0.04296875 1.859375 0.04296875 4 1 C5.703125 3.80078125 5.703125 3.80078125 7.25 7.3125 C7.77078125 8.46363281 8.2915625 9.61476563 8.828125 10.80078125 C10 14 10 14 10 18 C8.0625 17.6875 8.0625 17.6875 6 17 C5.67 16.01 5.34 15.02 5 14 C1.56769552 14.26393501 1.56769552 14.26393501 -2 15 C-2.99 16.485 -2.99 16.485 -4 18 C-4.99 18 -5.98 18 -7 18 C-6.34422814 13.97594538 -5.08843632 10.49944851 -3.5 6.75 C-3.0565625 5.69296875 -2.613125 4.6359375 -2.15625 3.546875 C-1 1 -1 1 0 0 Z M1 7 C0.67 7.99 0.34 8.98 0 10 C0.99 10 1.98 10 3 10 C2.67 9.01 2.34 8.02 2 7 C1.67 7 1.34 7 1 7 Z " fill="#043276" transform="translate(120,59)"/>
<path d="M0 0 C-0.66 1.32 -1.32 2.64 -2 4 C-4.64 3.67 -7.28 3.34 -10 3 C-9.67 5.31 -9.34 7.62 -9 10 C-5.94736336 10.98120464 -4.05263664 10.98120464 -1 10 C-0.67 11.32 -0.34 12.64 0 14 C-2.70367569 15.83849947 -4.16625394 15.99703118 -7.5 15.9375 C-11 15 -11 15 -13.4375 12.8125 C-15.27363413 9.50745856 -15.47580309 7.7271242 -15 4 C-14.10003417 1.0546573 -13.42449408 0.24762155 -10.75 -1.3125 C-6.83419936 -2.29145016 -3.60400639 -1.8020032 0 0 Z " fill="#053276" transform="translate(320,61)"/>
<path d="M0 0 C1.32 0 2.64 0 4 0 C4 0.66 4 1.32 4 2 C4.66 2 5.32 2 6 2 C6.33 2.66 6.66 3.32 7 4 C7.33 2.68 7.66 1.36 8 0 C9.32 0 10.64 0 12 0 C12 4.29 12 8.58 12 13 C7.70574125 11.92643531 7.25259529 11.4915227 5 8 C4.67 9.65 4.34 11.3 4 13 C2.68 12.67 1.36 12.34 0 12 C0 8.04 0 4.08 0 0 Z " fill="#053075" transform="translate(342,64)"/>
<path d="M0 0 C2.475 0.495 2.475 0.495 5 1 C5.66 1.99 6.32 2.98 7 4 C7.33 2.68 7.66 1.36 8 0 C8.99 0 9.98 0 11 0 C11 4.29 11 8.58 11 13 C7.60085025 11.86695008 6.94745549 10.87481525 5 8 C4.67 9.65 4.34 11.3 4 13 C2.68 12.67 1.36 12.34 0 12 C0 8.04 0 4.08 0 0 Z " fill="#043175" transform="translate(419,64)"/>
<path d="M0 0 C1.875 1.0625 1.875 1.0625 3 3 C3.4375 6.5 3.4375 6.5 3 10 C1.375 12 1.375 12 -1 13 C-4.51883536 12.92818703 -6.30614617 12.62670668 -8.9375 10.25 C-10 8 -10 8 -9.875 5.4375 C-7.97946103 0.15707002 -5.52477171 -0.69059646 0 0 Z M-4 3 C-5.10836423 4.88316159 -5.10836423 4.88316159 -6 7 C-5.67 7.66 -5.34 8.32 -5 9 C-3.68 9 -2.36 9 -1 9 C-0.67 7.68 -0.34 6.36 0 5 C-1.32 4.34 -2.64 3.68 -4 3 Z " fill="#043276" transform="translate(335,64)"/>
<path d="M0 0 C6.22222222 -0.35897436 6.22222222 -0.35897436 9.4375 1.125 C11 3 11 3 11.5625 5.9375 C11 9 11 9 8.875 11.375 C6 13 6 13 0 13 C0 8.71 0 4.42 0 0 Z M3 3 C3 4.98 3 6.96 3 9 C4.32 8.67 5.64 8.34 7 8 C7 6.68 7 5.36 7 4 C5.68 3.67 4.36 3.34 3 3 Z " fill="#053477" transform="translate(151,64)"/>
<path d="M0 0 C0.94875 0.04125 1.8975 0.0825 2.875 0.125 C3.205 1.445 3.535 2.765 3.875 4.125 C2.225 4.125 0.575 4.125 -1.125 4.125 C-1.455 5.445 -1.785 6.765 -2.125 8.125 C-1.465 8.125 -0.805 8.125 -0.125 8.125 C-0.125 7.135 -0.125 6.145 -0.125 5.125 C1.525 5.125 3.175 5.125 4.875 5.125 C5.0625 8 5.0625 8 4.875 11.125 C1.875 13.125 1.875 13.125 -1.125 13.0625 C-4.125 12.125 -4.125 12.125 -6.125 9.875 C-7.125 7.125 -7.125 7.125 -6.4375 4.4375 C-4.52969436 1.07612816 -3.97158854 0.15886354 0 0 Z " fill="#053276" transform="translate(441.125,63.875)"/>
<path d="M0 0 C4.29 0 8.58 0 13 0 C13 0.99 13 1.98 13 3 C11.35 3 9.7 3 8 3 C8 7.62 8 12.24 8 17 C6.68 17 5.36 17 4 17 C4 12.38 4 7.76 4 3 C2.68 3 1.36 3 0 3 C0 2.01 0 1.02 0 0 Z " fill="#053278" transform="translate(222,60)"/>
<path d="M0 0 C1.32 0 2.64 0 4 0 C4 2.97 4 5.94 4 9 C4.99 8.67 5.98 8.34 7 8 C7.33 5.36 7.66 2.72 8 0 C8.99 0 9.98 0 11 0 C11.61832061 8.03816794 11.61832061 8.03816794 9.3125 11.625 C7 13 7 13 4.375 12.875 C2 12 2 12 0 10 C-0.1953125 7.6171875 -0.1953125 7.6171875 -0.125 4.875 C-0.10695313 3.96492188 -0.08890625 3.05484375 -0.0703125 2.1171875 C-0.04710937 1.41851562 -0.02390625 0.71984375 0 0 Z " fill="#043278" transform="translate(371,64)"/>
<path d="M0 0 C-0.33 0.99 -0.66 1.98 -1 3 C-3.0625 3.6875 -3.0625 3.6875 -5 4 C-3.35 4.33 -1.7 4.66 0 5 C0.1875 7.375 0.1875 7.375 0 10 C-3 12 -3 12 -6.1875 11.625 C-7.5796875 11.315625 -7.5796875 11.315625 -9 11 C-9 9.68 -9 8.36 -9 7 C-8.01 7 -7.02 7 -6 7 C-6.99 6.34 -7.98 5.68 -9 5 C-9.1875 2.375 -9.1875 2.375 -9 0 C-5.93109813 -1.53445094 -3.29905734 -0.54984289 0 0 Z " fill="#053176" transform="translate(367,65)"/>
<path d="M0 0 C2.375 -0.125 2.375 -0.125 5 0 C5.66 0.66 6.32 1.32 7 2 C7.33 1.34 7.66 0.68 8 0 C9.32 0 10.64 0 12 0 C11.649375 0.556875 11.29875 1.11375 10.9375 1.6875 C9.75837791 4.59600114 10.1780569 6.01111601 11 9 C11.2784375 10.1446875 11.2784375 10.1446875 11.5625 11.3125 C11.706875 11.869375 11.85125 12.42625 12 13 C9.13275314 12.42655063 8.1385485 12.1385485 6 10 C5.01 11.485 5.01 11.485 4 13 C2.68 12.67 1.36 12.34 0 12 C0.53625 11.278125 1.0725 10.55625 1.625 9.8125 C3.3444978 7.08478986 3.3444978 7.08478986 2.25 4.3125 C1.8375 3.549375 1.425 2.78625 1 2 C0.67 1.34 0.34 0.68 0 0 Z " fill="#043277" transform="translate(255,64)"/>
<path d="M0 0 C1.9296875 0.3671875 1.9296875 0.3671875 4 1 C5.97993164 4.73987087 6.88287248 8.93046405 8 13 C6.68 12.67 5.36 12.34 4 12 C4 11.34 4 10.68 4 10 C2.35 10 0.7 10 -1 10 C-1.33 10.99 -1.66 11.98 -2 13 C-2.99 13 -3.98 13 -5 13 C-4.39254603 8.14036821 -2.27241033 4.2594482 0 0 Z " fill="#042F76" transform="translate(245,64)"/>
<path d="M0 0 C0.99 0 1.98 0 3 0 C3 2.97 3 5.94 3 9 C3.99 8.67 4.98 8.34 6 8 C6.33 5.36 6.66 2.72 7 0 C7.99 0 8.98 0 10 0 C10.08086147 1.79093191 10.13912702 3.58289628 10.1875 5.375 C10.22230469 6.37273437 10.25710937 7.37046875 10.29296875 8.3984375 C10.19628906 9.25695312 10.09960938 10.11546875 10 11 C7 13 7 13 3.875 12.75 C2.451875 12.37875 2.451875 12.37875 1 12 C-0.26237731 9.47524538 -0.09856404 7.68799534 -0.0625 4.875 C-0.05347656 3.96492188 -0.04445312 3.05484375 -0.03515625 2.1171875 C-0.02355469 1.41851562 -0.01195312 0.71984375 0 0 Z " fill="#053176" transform="translate(136,64)"/>
<path d="M0 0 C3.63 0 7.26 0 11 0 C11 0.99 11 1.98 11 3 C9.68 3 8.36 3 7 3 C7 6.3 7 9.6 7 13 C6.01 13 5.02 13 4 13 C4 9.7 4 6.4 4 3 C2.68 3 1.36 3 0 3 C0 2.01 0 1.02 0 0 Z " fill="#053178" transform="translate(397,64)"/>
<path d="M0 0 C0.99 0 1.98 0 3 0 C3 2.97 3 5.94 3 9 C4.98 9 6.96 9 9 9 C8.67 10.32 8.34 11.64 8 13 C5.36 13 2.72 13 0 13 C0 8.71 0 4.42 0 0 Z " fill="#043378" transform="translate(387,64)"/>
<path d="M0 0 C3.3 0 6.6 0 10 0 C10 0.99 10 1.98 10 3 C8.68 3 7.36 3 6 3 C6 6.3 6 9.6 6 13 C5.01 13 4.02 13 3 13 C3 9.7 3 6.4 3 3 C2.01 3 1.02 3 0 3 C0 2.01 0 1.02 0 0 Z " fill="#053275" transform="translate(174,64)"/>
<path d="M0 0 C1.32 0 2.64 0 4 0 C4 4.29 4 8.58 4 13 C2.68 13 1.36 13 0 13 C0 8.71 0 4.42 0 0 Z " fill="#043174" transform="translate(411,64)"/>
<path d="M0 0 C1.32 0 2.64 0 4 0 C4 4.29 4 8.58 4 13 C2.68 13 1.36 13 0 13 C0 8.71 0 4.42 0 0 Z " fill="#063173" transform="translate(166,64)"/>
<path d="M0 0 C1.32 0 2.64 0 4 0 C4 1.65 4 3.3 4 5 C2.68 5 1.36 5 0 5 C0 3.35 0 1.7 0 0 Z " fill="#043079" transform="translate(283,72)"/>
<path d="M0 0 C1.32 0 2.64 0 4 0 C4 1.65 4 3.3 4 5 C2.68 5 1.36 5 0 5 C0 3.35 0 1.7 0 0 Z " fill="#053178" transform="translate(200,72)"/>
<path d="" fill="#000000" transform="translate(0,0)"/>
</svg>
